<svg width="17" height="18" viewBox="0 0 17 18" fill="none" xmlns="http://www.w3.org/2000/svg">
<path fill-rule="evenodd" clip-rule="evenodd" d="M0.725018 0H15.575C15.9463 0 16.25 0.3375 16.25 0.75V17.25C16.25 17.6625 15.9463 18 15.575 18H0.725018C0.353768 18 0.0500183 17.6625 0.0500183 17.25V0.75C0.0500183 0.3375 0.353768 0 0.725018 0ZM2.44627 15.3375H4.84252V6.75H2.44627V15.3375ZM3.66127 5.5875C2.88502 5.5875 2.27752 4.9125 2.27752 4.05C2.27752 3.1875 2.88502 2.5125 3.66127 2.5125C4.43752 2.5125 5.04502 3.1875 5.04502 4.05C5.04502 4.875 4.43752 5.5875 3.66127 5.5875ZM11.4575 15.3375H13.82V10.6125C13.82 8.2875 13.3813 6.525 10.9513 6.525C9.80377 6.525 8.99377 7.2375 8.69002 7.9125H8.65627V6.75H6.36127V15.3375H8.75752V11.1C8.75752 9.975 8.96002 8.8875 10.2088 8.8875C11.4575 8.8875 11.4575 10.1625 11.4575 11.175V15.3375Z" fill="#F5F2FF"/>
</svg>
