<svg width="16" height="15" viewBox="0 0 16 15" fill="none" xmlns="http://www.w3.org/2000/svg">
<path fill-rule="evenodd" clip-rule="evenodd" d="M15.75 1.73969C15.1763 2.04897 14.5706 2.24227 13.9331 2.35825C14.5706 1.89433 15.0806 1.15979 15.3038 0.270619C14.6981 0.695876 14.0288 1.00515 13.2956 1.19845C12.7219 0.463918 11.8931 0 11.0006 0C9.27939 0 7.87689 1.70103 7.87689 3.78866C7.87689 4.09794 7.90876 4.36856 7.97251 4.63918C5.39064 4.48454 3.06376 2.9768 1.50189 0.657216C1.24689 1.23711 1.08751 1.85567 1.08751 2.55155C1.08751 3.86598 1.62939 5.02577 2.49001 5.72165C1.98001 5.68299 1.50189 5.52835 1.05564 5.25773V5.29639C1.05564 7.15206 2.13939 8.69845 3.57376 9.04639C3.31876 9.12371 3.03189 9.16237 2.74501 9.16237C2.55376 9.16237 2.33064 9.12371 2.13939 9.08505C2.55376 10.5928 3.70126 11.7139 5.07189 11.7139C3.98814 12.7191 2.64939 13.3376 1.18314 13.3376C0.928137 13.3376 0.673137 13.3376 0.450012 13.299C1.85251 14.3814 3.47814 15 5.26314 15C11.0325 15 14.1881 9.20103 14.1881 4.17526C14.1881 4.02062 14.1881 3.82732 14.1881 3.67268C14.7938 3.1701 15.3356 2.51289 15.75 1.73969Z" fill="#FF6D1C"/>
</svg>
