<svg width="17" height="18" viewBox="0 0 17 18" fill="none" xmlns="http://www.w3.org/2000/svg">
<path d="M15.875 0H1.02501C0.652214 0 0.350006 0.335786 0.350006 0.75V17.25C0.350006 17.6642 0.652214 18 1.02501 18H9.00293V11.0295H6.89177V8.3129H9.00293V6.30952C9.00293 3.9846 10.2809 2.71865 12.1475 2.71865C13.0416 2.71865 13.8101 2.79261 14.034 2.82567V5.25534L12.7394 5.25599C11.7243 5.25599 11.5277 5.79198 11.5277 6.5785V8.3129H13.9488L13.6335 11.0295H11.5277V18H15.875C16.2478 18 16.55 17.6642 16.55 17.25V0.75C16.55 0.335786 16.2478 0 15.875 0Z" fill="#F5F2FF"/>
</svg>
