<svg width="365" height="101" viewBox="0 0 365 101" fill="none" xmlns="http://www.w3.org/2000/svg">
<rect x="1.33334" y="1" width="362.333" height="99" rx="8" stroke="#F5F2FF" stroke-linejoin="bevel"/>
<rect opacity="0.1" x="11.3333" y="11" width="79" height="79" rx="15" fill="#68D585"/>
<g clip-path="url(#clip0_1_310)">
<path fill-rule="evenodd" clip-rule="evenodd" d="M48.5783 26.4875C49.7099 26.0633 50.9568 26.0633 52.0883 26.4875L69.5883 33.05C70.5416 33.4073 71.3631 34.0471 71.9429 34.8839C72.5228 35.7206 72.8334 36.7145 72.8333 37.7325V51.14C72.8334 55.3186 71.6699 59.4146 69.4731 62.9691C67.2764 66.5237 64.1332 69.3963 60.3958 71.265L52.0108 75.455C51.49 75.7155 50.9157 75.8511 50.3333 75.8511C49.751 75.8511 49.1766 75.7155 48.6558 75.455L40.2708 71.2625C36.5334 69.3937 33.3902 66.5212 31.1935 62.9666C28.9967 59.4121 27.8332 55.3161 27.8333 51.1375V37.735C27.8327 36.7165 28.1431 35.7222 28.723 34.8849C29.3029 34.0477 30.1246 33.4075 31.0783 33.05L48.5783 26.4875ZM52.8333 50.33C53.7865 49.7796 54.5314 48.9301 54.9525 47.9133C55.3737 46.8964 55.4476 45.769 55.1627 44.7059C54.8778 43.6428 54.2502 42.7033 53.377 42.0333C52.5038 41.3633 51.4339 41 50.3333 41C49.2327 41 48.1628 41.3633 47.2896 42.0333C46.4165 42.7033 45.7888 43.6428 45.5039 44.7059C45.219 45.769 45.2929 46.8964 45.7141 47.9133C46.1353 48.9301 46.8802 49.7796 47.8333 50.33V58.5C47.8333 59.163 48.0967 59.7989 48.5655 60.2678C49.0344 60.7366 49.6703 61 50.3333 61C50.9964 61 51.6322 60.7366 52.1011 60.2678C52.5699 59.7989 52.8333 59.163 52.8333 58.5V50.33Z" fill="#68D585"/>
</g>
<path d="M130.686 50.859C130.686 52.315 130.21 53.505 129.258 54.429C128.306 55.353 127.102 55.815 125.646 55.815C124.26 55.815 123.084 55.367 122.118 54.471C121.152 53.561 120.641 52.42 120.585 51.048H123.609C123.665 51.664 123.868 52.168 124.218 52.56C124.582 52.938 125.065 53.127 125.667 53.127C126.241 53.127 126.738 52.945 127.158 52.581C127.592 52.217 127.809 51.748 127.809 51.174C127.809 50.936 127.781 50.719 127.725 50.523C127.669 50.313 127.571 50.131 127.431 49.977C127.305 49.809 127.186 49.676 127.074 49.578C126.976 49.466 126.808 49.354 126.57 49.242C126.346 49.13 126.171 49.053 126.045 49.011C125.919 48.955 125.709 48.878 125.415 48.78C125.135 48.668 124.946 48.591 124.848 48.549C124.134 48.269 123.665 48.073 123.441 47.961C121.915 47.163 121.152 45.868 121.152 44.076C121.152 42.802 121.586 41.745 122.454 40.905C123.336 40.065 124.421 39.645 125.709 39.645C126.969 39.645 128.033 40.072 128.901 40.926C129.769 41.766 130.238 42.816 130.308 44.076H127.368C127.27 42.914 126.689 42.333 125.625 42.333C125.163 42.333 124.778 42.48 124.47 42.774C124.176 43.068 124.029 43.446 124.029 43.908C124.029 44.09 124.05 44.258 124.092 44.412C124.148 44.566 124.204 44.699 124.26 44.811C124.316 44.923 124.414 45.035 124.554 45.147C124.694 45.259 124.799 45.343 124.869 45.399C124.953 45.455 125.093 45.525 125.289 45.609C125.499 45.693 125.639 45.749 125.709 45.777C125.779 45.805 125.933 45.861 126.171 45.945C126.423 46.015 126.57 46.057 126.612 46.071C127.914 46.505 128.915 47.093 129.615 47.835C130.329 48.577 130.686 49.585 130.686 50.859ZM144.15 55.5H141.588V54.051C141.126 54.597 140.51 55.038 139.74 55.374C138.984 55.71 138.242 55.878 137.514 55.878C135.82 55.878 134.448 55.262 133.398 54.03C132.362 52.798 131.844 51.321 131.844 49.599C131.844 47.891 132.39 46.442 133.482 45.252C134.588 44.048 135.988 43.446 137.682 43.446C138.97 43.446 140.118 43.908 141.126 44.832C141.336 45.042 141.476 45.203 141.546 45.315H141.588V43.845H144.15V55.5ZM140.559 52.245C141.189 51.531 141.504 50.663 141.504 49.641C141.504 48.619 141.189 47.758 140.559 47.058C139.929 46.358 139.11 46.008 138.102 46.008C137.094 46.008 136.261 46.372 135.603 47.1C134.959 47.828 134.637 48.703 134.637 49.725C134.637 50.719 134.966 51.566 135.624 52.266C136.296 52.966 137.122 53.316 138.102 53.316C139.11 53.316 139.929 52.959 140.559 52.245ZM150.52 42.396C149.862 42.41 149.407 42.501 149.155 42.669C148.917 42.837 148.777 43.229 148.735 43.845H150.373V46.323H148.735V55.5H145.942V46.323H144.955V43.845H145.942C146.068 42.417 146.523 41.332 147.307 40.59C148.007 39.96 148.819 39.645 149.743 39.645H150.52V42.396ZM162.836 49.515C162.836 49.963 162.78 50.432 162.668 50.922H153.617C153.673 51.188 153.799 51.468 153.995 51.762C154.667 52.798 155.612 53.316 156.83 53.316C158.076 53.316 158.972 52.819 159.518 51.825H162.458C162.08 53.001 161.359 53.974 160.295 54.744C159.231 55.5 158.076 55.878 156.83 55.878C155.094 55.878 153.631 55.283 152.441 54.093C151.265 52.903 150.677 51.44 150.677 49.704C150.677 47.954 151.258 46.477 152.42 45.273C153.596 44.055 155.059 43.446 156.809 43.446C158.503 43.446 159.931 44.034 161.093 45.21C162.255 46.386 162.836 47.821 162.836 49.515ZM159.98 48.675C159.84 47.835 159.49 47.184 158.93 46.722C158.384 46.246 157.684 46.008 156.83 46.008C155.99 46.008 155.276 46.246 154.688 46.722C154.114 47.184 153.729 47.835 153.533 48.675H159.98Z" fill="#161C2D"/>
<defs>
<clipPath id="clip0_1_310">
<rect width="60" height="60" fill="white" transform="translate(20.3333 21)"/>
</clipPath>
</defs>
</svg>
