<svg width="364" height="101" viewBox="0 0 364 101" fill="none" xmlns="http://www.w3.org/2000/svg">
<rect x="0.666626" y="1" width="362.333" height="99" rx="8" stroke="#F5F2FF" stroke-linejoin="bevel"/>
<rect opacity="0.1" x="10.6666" y="11" width="79" height="79" rx="15" fill="#FF6D1C"/>
<path d="M69.0729 43.625C69.0748 40.4389 68.2714 37.3039 66.7375 34.5114C65.2035 31.7188 62.9887 29.3592 60.2987 27.6517C57.6088 25.9442 54.5309 24.9443 51.351 24.7447C48.1712 24.5451 44.9924 25.1523 42.1101 26.51C39.2277 27.8677 36.7352 29.9319 34.8641 32.5107C32.993 35.0895 31.8039 38.0994 31.4074 41.2608C31.0108 44.4221 31.4197 47.6324 32.5959 50.5935C33.7722 53.5545 35.6776 56.1703 38.1354 58.1978V74.5625C38.1352 74.8556 38.2099 75.1439 38.3526 75.4C38.4952 75.6561 38.7009 75.8715 38.9502 76.0256C39.1996 76.1798 39.4841 76.2676 39.777 76.2807C40.0698 76.2939 40.3611 76.232 40.6233 76.1008L50.1666 71.3398L59.7121 76.1115C59.9515 76.2258 60.2139 76.2839 60.4791 76.2812C60.935 76.2812 61.3721 76.1002 61.6945 75.7778C62.0168 75.4555 62.1979 75.0183 62.1979 74.5625V58.1978C64.3483 56.4267 66.08 54.2015 67.2687 51.682C68.4573 49.1624 69.0735 46.4109 69.0729 43.625ZM34.6979 43.625C34.6979 40.5656 35.6051 37.5748 37.3048 35.031C39.0046 32.4872 41.4204 30.5045 44.247 29.3337C47.0735 28.1629 50.1838 27.8566 53.1844 28.4535C56.1851 29.0503 58.9413 30.5236 61.1047 32.6869C63.268 34.8503 64.7413 37.6065 65.3382 40.6072C65.935 43.6078 65.6287 46.7181 64.4579 49.5446C63.2871 52.3712 61.3044 54.7871 58.7606 56.4868C56.2168 58.1865 53.2261 59.0937 50.1666 59.0937C46.0655 59.0892 42.1336 57.458 39.2336 54.558C36.3336 51.6581 34.7024 47.7262 34.6979 43.625ZM38.1354 43.625C38.1354 41.2454 38.841 38.9193 40.163 36.9408C41.485 34.9623 43.364 33.4202 45.5625 32.5096C47.7609 31.599 50.18 31.3607 52.5138 31.8249C54.8476 32.2892 56.9914 33.435 58.674 35.1176C60.3566 36.8002 61.5025 38.944 61.9667 41.2778C62.4309 43.6117 62.1927 46.0307 61.2821 48.2292C60.3714 50.4276 58.8294 52.3066 56.8508 53.6286C54.8723 54.9506 52.5462 55.6562 50.1666 55.6562C46.9768 55.6528 43.9186 54.3842 41.663 52.1286C39.4075 49.873 38.1388 46.8148 38.1354 43.625Z" fill="#FF6D1C"/>
<path d="M135.753 44.391H132.477C131.301 43.019 129.915 42.333 128.319 42.333C126.919 42.333 125.722 42.879 124.728 43.971C123.748 45.049 123.258 46.295 123.258 47.709C123.258 49.137 123.762 50.397 124.77 51.489C125.792 52.581 127.01 53.127 128.424 53.127C129.838 53.127 131.14 52.476 132.33 51.174H135.669C135.081 52.574 134.115 53.701 132.771 54.555C131.441 55.395 130.013 55.815 128.487 55.815C126.261 55.815 124.35 55.017 122.754 53.421C121.172 51.811 120.381 49.893 120.381 47.667C120.381 45.469 121.172 43.586 122.754 42.018C124.336 40.436 126.226 39.645 128.424 39.645C130.02 39.645 131.476 40.072 132.792 40.926C134.122 41.78 135.109 42.935 135.753 44.391ZM148.467 49.641C148.467 51.405 147.879 52.889 146.703 54.093C145.527 55.283 144.057 55.878 142.293 55.878C140.585 55.878 139.122 55.269 137.904 54.051C136.686 52.833 136.077 51.377 136.077 49.683C136.077 47.961 136.679 46.491 137.883 45.273C139.101 44.055 140.571 43.446 142.293 43.446C144.015 43.446 145.471 44.048 146.661 45.252C147.865 46.456 148.467 47.919 148.467 49.641ZM145.674 49.704C145.674 48.738 145.345 47.884 144.687 47.142C144.043 46.386 143.245 46.008 142.293 46.008C141.327 46.008 140.515 46.379 139.857 47.121C139.199 47.863 138.87 48.717 138.87 49.683C138.87 50.677 139.192 51.531 139.836 52.245C140.48 52.959 141.299 53.316 142.293 53.316C143.259 53.316 144.064 52.959 144.708 52.245C145.352 51.531 145.674 50.684 145.674 49.704ZM167.112 55.5H164.319V49.032C164.319 47.016 163.584 46.008 162.114 46.008C161.26 46.008 160.616 46.372 160.182 47.1C159.902 47.562 159.762 48.353 159.762 49.473V55.5H156.969V49.032C156.969 48.164 156.78 47.443 156.402 46.869C156.038 46.295 155.45 46.008 154.638 46.008C154.148 46.008 153.742 46.12 153.42 46.344C153.098 46.554 152.867 46.869 152.727 47.289C152.601 47.695 152.517 48.073 152.475 48.423C152.433 48.759 152.412 49.179 152.412 49.683V55.5H149.619V43.845H152.181V44.832H152.223C152.783 43.908 153.798 43.446 155.268 43.446C156.724 43.446 157.844 44.055 158.628 45.273C159.482 44.055 160.735 43.446 162.387 43.446C164.067 43.446 165.348 44.048 166.23 45.252C166.818 46.078 167.112 47.226 167.112 48.696V55.5ZM179.284 45.273C180.39 46.477 180.943 47.926 180.943 49.62C180.943 51.314 180.383 52.784 179.263 54.03C178.157 55.262 176.771 55.878 175.105 55.878C174.349 55.878 173.698 55.759 173.152 55.521C172.62 55.297 172.074 54.919 171.514 54.387V59.385H168.721V43.845H171.283V45.21H171.325C172.263 44.034 173.523 43.446 175.105 43.446C176.785 43.446 178.178 44.055 179.284 45.273ZM177.163 52.224C177.821 51.482 178.15 50.628 178.15 49.662C178.15 48.696 177.828 47.849 177.184 47.121C176.54 46.379 175.742 46.008 174.79 46.008C173.796 46.008 172.97 46.372 172.312 47.1C171.668 47.814 171.346 48.668 171.346 49.662C171.346 50.404 171.521 51.069 171.871 51.657C172.221 52.245 172.725 52.686 173.383 52.98C173.831 53.204 174.286 53.316 174.748 53.316C175.714 53.316 176.519 52.952 177.163 52.224ZM193.907 49.515C193.907 49.963 193.851 50.432 193.739 50.922H184.688C184.744 51.188 184.87 51.468 185.066 51.762C185.738 52.798 186.683 53.316 187.901 53.316C189.147 53.316 190.043 52.819 190.589 51.825H193.529C193.151 53.001 192.43 53.974 191.366 54.744C190.302 55.5 189.147 55.878 187.901 55.878C186.165 55.878 184.702 55.283 183.512 54.093C182.336 52.903 181.748 51.44 181.748 49.704C181.748 47.954 182.329 46.477 183.491 45.273C184.667 44.055 186.13 43.446 187.88 43.446C189.574 43.446 191.002 44.034 192.164 45.21C193.326 46.386 193.907 47.821 193.907 49.515ZM191.051 48.675C190.911 47.835 190.561 47.184 190.001 46.722C189.455 46.246 188.755 46.008 187.901 46.008C187.061 46.008 186.347 46.246 185.759 46.722C185.185 47.184 184.8 47.835 184.604 48.675H191.051ZM200.309 46.323H198.629V55.5H195.836V46.323H194.471V43.845H195.836V39.96H198.629V43.845H200.309V46.323ZM203.732 42.522H200.939V39.96H203.732V42.522ZM203.732 55.5H200.939V43.845H203.732V55.5ZM210.65 46.323H208.97V55.5H206.177V46.323H204.812V43.845H206.177V39.96H208.97V43.845H210.65V46.323ZM214.073 42.522H211.28V39.96H214.073V42.522ZM214.073 55.5H211.28V43.845H214.073V55.5ZM226.388 43.845L221.663 55.5H219.479L214.775 43.845H217.799L220.613 51.573H220.676L223.322 43.845H226.388ZM238.773 49.515C238.773 49.963 238.717 50.432 238.605 50.922H229.554C229.61 51.188 229.736 51.468 229.932 51.762C230.604 52.798 231.549 53.316 232.767 53.316C234.013 53.316 234.909 52.819 235.455 51.825H238.395C238.017 53.001 237.296 53.974 236.232 54.744C235.168 55.5 234.013 55.878 232.767 55.878C231.031 55.878 229.568 55.283 228.378 54.093C227.202 52.903 226.614 51.44 226.614 49.704C226.614 47.954 227.195 46.477 228.357 45.273C229.533 44.055 230.996 43.446 232.746 43.446C234.44 43.446 235.868 44.034 237.03 45.21C238.192 46.386 238.773 47.821 238.773 49.515ZM235.917 48.675C235.777 47.835 235.427 47.184 234.867 46.722C234.321 46.246 233.621 46.008 232.767 46.008C231.927 46.008 231.213 46.246 230.625 46.722C230.051 47.184 229.666 47.835 229.47 48.675H235.917Z" fill="#161C2D"/>
</svg>
