<svg width="364" height="101" viewBox="0 0 364 101" fill="none" xmlns="http://www.w3.org/2000/svg">
<rect x="1" y="1" width="362.333" height="99" rx="8" stroke="#F5F2FF" stroke-linejoin="bevel"/>
<rect opacity="0.1" x="11" y="11" width="79" height="79" rx="15" fill="#473BF0"/>
<g clip-path="url(#clip0_1_304)">
<path d="M58.3102 50.5372V46.3634H60.9273L66.6891 41.6439C66.7733 41.5815 66.8418 41.4999 66.889 41.4059C66.9362 41.3118 66.9609 41.2079 66.9609 41.1025V27.0232C66.9608 26.8474 66.8925 26.6786 66.7704 26.553C66.6484 26.4274 66.4824 26.3552 66.3081 26.3516L48.8035 26.0002C48.6858 25.9976 48.5694 26.0266 48.4665 26.0843C48.3635 26.142 48.2777 26.2263 48.2177 26.3286L43.6326 34.111C43.4257 34.3974 43.5822 35.0405 43.8519 38.0603C42.0361 38.0544 41.8171 37.9784 41.5247 38.3044L34.2934 45.5014C34.006 45.7428 34 45.9795 34 45.9795L34.4758 60.7574H39.1381V74H56.2651L61.5792 70.3034C61.6706 70.2421 61.7456 70.159 61.7975 70.0614C61.8494 69.9638 61.8766 69.8548 61.8766 69.744V54.654C61.8766 54.4759 61.8065 54.305 61.6816 54.179C61.5566 54.0531 61.3872 53.9823 61.2106 53.9823H55.493C57.5554 51.5873 58.3106 51.0655 58.3102 50.5372ZM49.1648 27.3511L64.7553 27.6641L59.0941 33.6967H45.4253L49.1648 27.3511ZM35.7095 45.9795L42.2591 39.4611L43.9249 39.5019L44.2761 45.9795H35.7095ZM56.2651 72.252V60.3256L60.5445 56.6006V69.3837L56.2651 72.252ZM59.9706 55.3257L54.6122 59.9898H49.6996L54.3064 55.3257H59.9706ZM56.9781 50.2814L50.7058 57.3823L50.9366 46.3634H56.9781V50.2814ZM60.9595 44.2196L61.1175 33.6967L65.6288 28.6876V40.7622L60.9595 44.2196Z" fill="#5510A9"/>
</g>
<path d="M129.639 55.5H121.281V39.96H129.639V42.648H124.158V46.449H129.408V49.137H124.158V52.812H129.639V55.5ZM143.283 55.5H140.721V54.051C140.259 54.597 139.643 55.038 138.873 55.374C138.117 55.71 137.375 55.878 136.647 55.878C134.953 55.878 133.581 55.262 132.531 54.03C131.495 52.798 130.977 51.321 130.977 49.599C130.977 47.891 131.523 46.442 132.615 45.252C133.721 44.048 135.121 43.446 136.815 43.446C138.103 43.446 139.251 43.908 140.259 44.832C140.469 45.042 140.609 45.203 140.679 45.315H140.721V43.845H143.283V55.5ZM139.692 52.245C140.322 51.531 140.637 50.663 140.637 49.641C140.637 48.619 140.322 47.758 139.692 47.058C139.062 46.358 138.243 46.008 137.235 46.008C136.227 46.008 135.394 46.372 134.736 47.1C134.092 47.828 133.77 48.703 133.77 49.725C133.77 50.719 134.099 51.566 134.757 52.266C135.429 52.966 136.255 53.316 137.235 53.316C138.243 53.316 139.062 52.959 139.692 52.245ZM152.614 51.804C152.614 52.952 152.222 53.918 151.438 54.702C150.668 55.486 149.702 55.878 148.54 55.878C147.868 55.878 147.217 55.752 146.587 55.5C145.957 55.234 145.446 54.849 145.054 54.345C144.55 53.715 144.256 52.875 144.172 51.825H147.028C147.252 52.819 147.763 53.316 148.561 53.316C148.911 53.316 149.205 53.211 149.443 53.001C149.695 52.777 149.821 52.49 149.821 52.14C149.821 51.902 149.765 51.699 149.653 51.531C149.569 51.405 149.408 51.279 149.17 51.153C148.932 51.027 148.715 50.929 148.519 50.859C148.337 50.789 148.078 50.698 147.742 50.586C147.42 50.474 147.238 50.411 147.196 50.397C145.46 49.781 144.592 48.668 144.592 47.058C144.592 46.022 144.977 45.161 145.747 44.475C146.531 43.789 147.448 43.446 148.498 43.446C149.52 43.446 150.395 43.789 151.123 44.475C151.865 45.161 152.257 46.008 152.299 47.016H149.569C149.429 46.344 149.058 46.008 148.456 46.008C148.162 46.008 147.91 46.106 147.7 46.302C147.49 46.484 147.385 46.722 147.385 47.016C147.385 47.212 147.441 47.38 147.553 47.52C147.665 47.646 147.77 47.737 147.868 47.793C147.966 47.835 148.127 47.898 148.351 47.982C148.575 48.066 148.911 48.178 149.359 48.318C150.423 48.654 151.228 49.074 151.774 49.578C152.334 50.068 152.614 50.81 152.614 51.804ZM164.513 43.845L157.814 59.385H154.811L156.953 54.408L152.69 43.845H155.882L158.528 51.321L161.342 43.845H164.513Z" fill="#161C2D"/>
<defs>
<clipPath id="clip0_1_304">
<rect width="33" height="48" fill="white" transform="translate(34 26)"/>
</clipPath>
</defs>
</svg>
