<svg width="17" height="18" viewBox="0 0 17 18" fill="none" xmlns="http://www.w3.org/2000/svg">
<path fill-rule="evenodd" clip-rule="evenodd" d="M5.01044 0.054C5.87444 0.0105 6.15018 0 8.35 0C10.5498 0 10.8256 0.0105 11.6896 0.054C13.0065 0.12075 14.1624 0.47925 15.0906 1.5105C16.019 2.54212 16.3413 3.82687 16.4014 5.28937C16.4405 6.24937 16.45 6.55575 16.45 9C16.45 11.4443 16.4405 11.7506 16.4014 12.7106C16.3413 14.1739 16.0187 15.4583 15.0906 16.4895C14.1621 17.5211 13.0055 17.8792 11.6896 17.946C10.8256 17.9895 10.5498 18 8.35 18C6.15018 18 5.87444 17.9895 5.01044 17.946C3.69351 17.8792 2.53758 17.5208 1.60945 16.4895C0.680987 15.4579 0.358675 14.1731 0.2986 12.7106C0.25945 11.7506 0.25 11.4443 0.25 9C0.25 6.55575 0.25945 6.24937 0.2986 5.28937C0.358675 3.82612 0.681325 2.54175 1.60945 1.5105C2.53791 0.478875 3.69419 0.12075 5.01044 0.054ZM11.6231 1.674C10.7689 1.6305 10.5127 1.6215 8.35 1.6215C6.1873 1.6215 5.93114 1.63087 5.07692 1.674C4.15521 1.72088 3.29965 1.926 2.64152 2.65725C1.9834 3.3885 1.79879 4.33913 1.7566 5.36325C1.71745 6.31238 1.70935 6.597 1.70935 9C1.70935 11.403 1.71779 11.6876 1.7566 12.6368C1.79879 13.6609 1.9834 14.6115 2.64152 15.3427C3.29965 16.074 4.15521 16.2791 5.07692 16.326C5.9308 16.3695 6.18696 16.3785 8.35 16.3785C10.513 16.3785 10.7692 16.3691 11.6231 16.326C12.5448 16.2791 13.4003 16.074 14.0585 15.3427C14.7166 14.6115 14.9012 13.6609 14.9434 12.6368C14.9826 11.6876 14.9907 11.403 14.9907 9C14.9907 6.597 14.9822 6.31238 14.9434 5.36325C14.9012 4.33913 14.7166 3.3885 14.0585 2.65725C13.4003 1.926 12.5448 1.72088 11.6231 1.674Z" fill="#F5F2FF"/>
<path fill-rule="evenodd" clip-rule="evenodd" d="M4.66818 9.40906C4.66818 6.92391 6.48122 4.90906 8.71818 4.90906C10.9551 4.90906 12.7682 6.92354 12.7682 9.40906C12.7682 11.8946 10.9551 13.9091 8.71818 13.9091C6.48122 13.9091 4.66818 11.8942 4.66818 9.40906ZM6.08917 9.40906C6.08917 11.0223 7.26631 12.3302 8.71818 12.3302C10.1701 12.3302 11.3472 11.0223 11.3472 9.40906C11.3472 7.79586 10.1701 6.48793 8.71818 6.48793C7.26631 6.48793 6.08917 7.79586 6.08917 9.40906Z" fill="#F5F2FF"/>
<ellipse cx="12.4" cy="4.49998" rx="1.10455" ry="1.22727" fill="#F5F2FF"/>
</svg>
